{
	"asset":{
		"generator":"Khronos glTF Blender I/O v4.1.63",
		"version":"2.0"
	},
	"scene":0,
	"scenes":[
		{
			"name":"Scene",
			"nodes":[
				0,
				1,
				2,
				3,
				4
			]
		}
	],
	"nodes":[
		{
			"mesh":0,
			"name":"Legs",
			"rotation":[
				0,
				-1,
				0,
				1.6292068494294654e-07
			],
			"translation":[
				-0.01032605767250061,
				0.09441366046667099,
				-0.3117631673812866
			]
		},
		{
			"mesh":1,
			"name":"Cusion.002",
			"rotation":[
				0.7181811928749084,
				-0.5865786671638489,
				-0.027681291103363037,
				0.3733295500278473
			],
			"scale":[
				0.38983678817749023,
				0.8531244397163391,
				0.6976543664932251
			],
			"translation":[
				-0.8664050102233887,
				0.6113567352294922,
				-0.29133695363998413
			]
		},
		{
			"mesh":2,
			"name":"Cusion.001",
			"rotation":[
				-0.4174884855747223,
				-0.624141275882721,
				0.5482417941093445,
				0.36821457743644714
			],
			"scale":[
				0.38847386837005615,
				0.8470633029937744,
				0.6750641465187073
			],
			"translation":[
				-1.0882236957550049,
				0.6224181652069092,
				-0.15351535379886627
			]
		},
		{
			"mesh":3,
			"name":"Cusion",
			"rotation":[
				0.7225034832954407,
				0.6600847244262695,
				-0.1461227387189865,
				0.14465489983558655
			],
			"scale":[
				0.3863556683063507,
				0.8527161478996277,
				0.6136870980262756
			],
			"translation":[
				0.3631216585636139,
				0.6075174808502197,
				-0.336148202419281
			]
		},
		{
			"mesh":4,
			"name":"Sofa",
			"rotation":[
				0,
				-0.7071068286895752,
				0,
				0.7071068286895752
			],
			"scale":[
				1,
				1,
				1.0125521421432495
			],
			"translation":[
				0.0279422365128994,
				0.2244945764541626,
				-0.2892214059829712
			]
		}
	],
	"materials":[
		{
			"doubleSided":true,
			"name":"Legs metallic",
			"pbrMetallicRoughness":{
				"baseColorFactor":[
					0.800000011920929,
					0.800000011920929,
					0.800000011920929,
					1
				],
				"roughnessFactor":0.0734870433807373
			}
		},
		{
			"doubleSided":true,
			"name":"cusion yellow",
			"normalTexture":{
				"index":0,
				"scale":2.6999998092651367
			},
			"pbrMetallicRoughness":{
				"baseColorTexture":{
					"index":1
				},
				"metallicFactor":0,
				"metallicRoughnessTexture":{
					"index":2
				}
			}
		},
		{
			"doubleSided":true,
			"name":"r\u00f8d brown",
			"normalTexture":{
				"index":3
			},
			"pbrMetallicRoughness":{
				"baseColorTexture":{
					"index":4
				},
				"metallicFactor":0,
				"metallicRoughnessTexture":{
					"index":5
				}
			}
		}
	],
	"meshes":[
		{
			"name":"Cylinder.005",
			"primitives":[
				{
					"attributes":{
						"POSITION":0,
						"NORMAL":1,
						"TEXCOORD_0":2
					},
					"indices":3,
					"material":0
				}
			]
		},
		{
			"name":"Cube.039",
			"primitives":[
				{
					"attributes":{
						"POSITION":4,
						"NORMAL":5,
						"TEXCOORD_0":6
					},
					"indices":7,
					"material":1
				}
			]
		},
		{
			"name":"Cube.038",
			"primitives":[
				{
					"attributes":{
						"POSITION":8,
						"NORMAL":9,
						"TEXCOORD_0":10
					},
					"indices":11,
					"material":1
				}
			]
		},
		{
			"name":"Cube.037",
			"primitives":[
				{
					"attributes":{
						"POSITION":12,
						"NORMAL":13,
						"TEXCOORD_0":14
					},
					"indices":15,
					"material":1
				}
			]
		},
		{
			"name":"Cube.001",
			"primitives":[
				{
					"attributes":{
						"POSITION":16,
						"NORMAL":17,
						"TEXCOORD_0":18
					},
					"indices":19,
					"material":2
				}
			]
		}
	],
	"textures":[
		{
			"sampler":0,
			"source":0
		},
		{
			"sampler":0,
			"source":1
		},
		{
			"sampler":0,
			"source":2
		},
		{
			"sampler":0,
			"source":3
		},
		{
			"sampler":0,
			"source":4
		},
		{
			"sampler":0,
			"source":5
		}
	],
	"images":[
		{
			"mimeType":"image/jpeg",
			"name":"FabricWeaveCouch001_NRM_3K_1_optimized",
			"uri":"Textures/FabricWeaveCouch001_NRM_3K_1_optimized.jpg"
		},
		{
			"mimeType":"image/png",
			"name":"black_and_yellow_optimized",
			"uri":"Textures/black_and_yellow_optimized.png"
		},
		{
			"mimeType":"image/jpeg",
			"name":"FabricWeaveCouch001_GLOSS_3K_1_optimized",
			"uri":"Textures/FabricWeaveCouch001_GLOSS_3K_1_optimized.jpg"
		},
		{
			"mimeType":"image/jpeg",
			"name":"FabricLeatherBuffaloRustic001_NRM_3K_1_optimized",
			"uri":"Textures/FabricLeatherBuffaloRustic001_NRM_3K_1_optimized.jpg"
		},
		{
			"mimeType":"image/jpeg",
			"name":"FabricLeatherBuffaloRustic001_COL_VAR1_3K_optimized",
			"uri":"Textures/FabricLeatherBuffaloRustic001_COL_VAR1_3K_optimized.jpg"
		},
		{
			"mimeType":"image/jpeg",
			"name":"FabricLeatherBuffaloRustic001_GLOSS_3K_optimized",
			"uri":"Textures/FabricLeatherBuffaloRustic001_GLOSS_3K_optimized.jpg"
		}
	],
	"accessors":[
		{
			"bufferView":0,
			"componentType":5126,
			"count":2744,
			"max":[
				1.0887235403060913,
				0.07829347252845764,
				0.3395819664001465
			],
			"min":[
				-1.0887235403060913,
				-0.07669997215270996,
				-0.3395819664001465
			],
			"type":"VEC3"
		},
		{
			"bufferView":1,
			"componentType":5126,
			"count":2744,
			"type":"VEC3"
		},
		{
			"bufferView":2,
			"componentType":5126,
			"count":2744,
			"type":"VEC2"
		},
		{
			"bufferView":3,
			"componentType":5123,
			"count":9168,
			"type":"SCALAR"
		},
		{
			"bufferView":4,
			"componentType":5126,
			"count":16710,
			"max":[
				0.3926069140434265,
				0.1998293250799179,
				0.12924115359783173
			],
			"min":[
				-0.3918519616127014,
				-0.21314528584480286,
				-0.09171457588672638
			],
			"type":"VEC3"
		},
		{
			"bufferView":5,
			"componentType":5126,
			"count":16710,
			"type":"VEC3"
		},
		{
			"bufferView":6,
			"componentType":5126,
			"count":16710,
			"type":"VEC2"
		},
		{
			"bufferView":7,
			"componentType":5123,
			"count":96000,
			"type":"SCALAR"
		},
		{
			"bufferView":8,
			"componentType":5126,
			"count":18070,
			"max":[
				0.40738674998283386,
				0.2053474485874176,
				0.1142759919166565
			],
			"min":[
				-0.405379056930542,
				-0.20707222819328308,
				-0.09448522329330444
			],
			"type":"VEC3"
		},
		{
			"bufferView":9,
			"componentType":5126,
			"count":18070,
			"type":"VEC3"
		},
		{
			"bufferView":10,
			"componentType":5126,
			"count":18070,
			"type":"VEC2"
		},
		{
			"bufferView":11,
			"componentType":5123,
			"count":104064,
			"type":"SCALAR"
		},
		{
			"bufferView":12,
			"componentType":5126,
			"count":18070,
			"max":[
				0.40167349576950073,
				0.2009751796722412,
				0.12176638096570969
			],
			"min":[
				-0.4539587199687958,
				-0.20737332105636597,
				-0.1067252978682518
			],
			"type":"VEC3"
		},
		{
			"bufferView":13,
			"componentType":5126,
			"count":18070,
			"type":"VEC3"
		},
		{
			"bufferView":14,
			"componentType":5126,
			"count":18070,
			"type":"VEC2"
		},
		{
			"bufferView":15,
			"componentType":5123,
			"count":104064,
			"type":"SCALAR"
		},
		{
			"bufferView":16,
			"componentType":5126,
			"count":103449,
			"max":[
				0.44574058055877686,
				0.6112140417098999,
				1.265486240386963
			],
			"min":[
				-0.40741240978240967,
				-0.060105569660663605,
				-1.267080545425415
			],
			"type":"VEC3"
		},
		{
			"bufferView":17,
			"componentType":5126,
			"count":103449,
			"type":"VEC3"
		},
		{
			"bufferView":18,
			"componentType":5126,
			"count":103449,
			"type":"VEC2"
		},
		{
			"bufferView":19,
			"componentType":5125,
			"count":568056,
			"type":"SCALAR"
		}
	],
	"bufferViews":[
		{
			"buffer":0,
			"byteLength":32928,
			"byteOffset":0,
			"target":34962
		},
		{
			"buffer":0,
			"byteLength":32928,
			"byteOffset":32928,
			"target":34962
		},
		{
			"buffer":0,
			"byteLength":21952,
			"byteOffset":65856,
			"target":34962
		},
		{
			"buffer":0,
			"byteLength":18336,
			"byteOffset":87808,
			"target":34963
		},
		{
			"buffer":0,
			"byteLength":200520,
			"byteOffset":106144,
			"target":34962
		},
		{
			"buffer":0,
			"byteLength":200520,
			"byteOffset":306664,
			"target":34962
		},
		{
			"buffer":0,
			"byteLength":133680,
			"byteOffset":507184,
			"target":34962
		},
		{
			"buffer":0,
			"byteLength":192000,
			"byteOffset":640864,
			"target":34963
		},
		{
			"buffer":0,
			"byteLength":216840,
			"byteOffset":832864,
			"target":34962
		},
		{
			"buffer":0,
			"byteLength":216840,
			"byteOffset":1049704,
			"target":34962
		},
		{
			"buffer":0,
			"byteLength":144560,
			"byteOffset":1266544,
			"target":34962
		},
		{
			"buffer":0,
			"byteLength":208128,
			"byteOffset":1411104,
			"target":34963
		},
		{
			"buffer":0,
			"byteLength":216840,
			"byteOffset":1619232,
			"target":34962
		},
		{
			"buffer":0,
			"byteLength":216840,
			"byteOffset":1836072,
			"target":34962
		},
		{
			"buffer":0,
			"byteLength":144560,
			"byteOffset":2052912,
			"target":34962
		},
		{
			"buffer":0,
			"byteLength":208128,
			"byteOffset":2197472,
			"target":34963
		},
		{
			"buffer":0,
			"byteLength":1241388,
			"byteOffset":2405600,
			"target":34962
		},
		{
			"buffer":0,
			"byteLength":1241388,
			"byteOffset":3646988,
			"target":34962
		},
		{
			"buffer":0,
			"byteLength":827592,
			"byteOffset":4888376,
			"target":34962
		},
		{
			"buffer":0,
			"byteLength":2272224,
			"byteOffset":5715968,
			"target":34963
		}
	],
	"samplers":[
		{
			"magFilter":9729,
			"minFilter":9987
		}
	],
	"buffers":[
		{
			"byteLength":7988192,
			"uri":"Sofa.bin"
		}
	]
}
