{
	"asset":{
		"generator":"Khronos glTF Blender I/O v4.1.63",
		"version":"2.0"
	},
	"extensionsUsed":[
		"KHR_materials_specular",
		"KHR_materials_ior",
		"KHR_materials_clearcoat",
		"KHR_materials_sheen"
	],
	"scene":0,
	"scenes":[
		{
			"name":"Scene",
			"nodes":[
				0
			]
		}
	],
	"nodes":[
		{
			"mesh":0,
			"name":"bottom",
			"rotation":[
				-0.10851829499006271,
				0.0029490909073501825,
				0.000321932922815904,
				0.9940900206565857
			],
			"translation":[
				-0.012318006716668606,
				0.32985585927963257,
				-0.08331127464771271
			]
		}
	],
	"materials":[
		{
			"doubleSided":true,
			"extensions":{
				"KHR_materials_specular":{
					"specularFactor":0
				},
				"KHR_materials_ior":{
					"ior":1.4500000476837158
				}
			},
			"name":"scheep0",
			"normalTexture":{
				"index":0,
				"scale":0.8999999761581421
			},
			"pbrMetallicRoughness":{
				"baseColorFactor":[
					0.800000011920929,
					0.800000011920929,
					0.800000011920929,
					1
				],
				"metallicFactor":0
			}
		},
		{
			"doubleSided":true,
			"extensions":{
				"KHR_materials_clearcoat":{
					"clearcoatFactor":0.25,
					"clearcoatRoughnessFactor":0.5419847369194031
				},
				"KHR_materials_specular":{
					"specularFactor":0.25954198837280273
				},
				"KHR_materials_sheen":{
					"sheenColorFactor":[
						1.0,
						1.0,
						1.0
					],
					"sheenRoughnessFactor":0.5
				},
				"KHR_materials_ior":{
					"ior":0
				}
			},
			"name":"oak-mod",
			"normalTexture":{
				"index":1,
				"scale":0.5999999642372131
			},
			"pbrMetallicRoughness":{
				"baseColorTexture":{
					"index":2
				},
				"metallicFactor":0,
				"metallicRoughnessTexture":{
					"index":3
				}
			}
		}
	],
	"meshes":[
		{
			"name":"Cube.015",
			"primitives":[
				{
					"attributes":{
						"POSITION":0,
						"NORMAL":1,
						"TEXCOORD_0":2
					},
					"indices":3,
					"material":0
				},
				{
					"attributes":{
						"POSITION":4,
						"NORMAL":5,
						"TEXCOORD_0":6
					},
					"indices":7,
					"material":1
				}
			]
		}
	],
	"textures":[
		{
			"sampler":0,
			"source":0
		},
		{
			"sampler":0,
			"source":1
		},
		{
			"sampler":0,
			"source":2
		},
		{
			"sampler":0,
			"source":3
		}
	],
	"images":[
		{
			"mimeType":"image/png",
			"name":"normal",
			"uri":"Textures/normal.png"
		},
		{
			"mimeType":"image/jpeg",
			"name":"Wood Material 15_Normal",
			"uri":"Textures/Wood%20Material%2015_Normal.jpg"
		},
		{
			"mimeType":"image/png",
			"name":"Oak Wood 2_BaseColor",
			"uri":"Textures/Oak%20Wood%202_BaseColor.png"
		},
		{
			"mimeType":"image/png",
			"name":"Oak Wood 2_BaseColor",
			"uri":"Textures/Oak%20Wood%202_BaseColor-1.png"
		}
	],
	"accessors":[
		{
			"bufferView":0,
			"componentType":5126,
			"count":14036,
			"max":[
				0.26262134313583374,
				0.4228528141975403,
				0.35458874702453613
			],
			"min":[
				-0.2659645676612854,
				-0.15554964542388916,
				-0.3546297550201416
			],
			"type":"VEC3"
		},
		{
			"bufferView":1,
			"componentType":5126,
			"count":14036,
			"type":"VEC3"
		},
		{
			"bufferView":2,
			"componentType":5126,
			"count":14036,
			"type":"VEC2"
		},
		{
			"bufferView":3,
			"componentType":5123,
			"count":81024,
			"type":"SCALAR"
		},
		{
			"bufferView":4,
			"componentType":5126,
			"count":5979,
			"max":[
				0.300640344619751,
				0.21178071200847626,
				0.3546297550201416
			],
			"min":[
				-0.300640344619751,
				-0.4228528141975403,
				-0.3443414568901062
			],
			"type":"VEC3"
		},
		{
			"bufferView":5,
			"componentType":5126,
			"count":5979,
			"type":"VEC3"
		},
		{
			"bufferView":6,
			"componentType":5126,
			"count":5979,
			"type":"VEC2"
		},
		{
			"bufferView":7,
			"componentType":5123,
			"count":28800,
			"type":"SCALAR"
		}
	],
	"bufferViews":[
		{
			"buffer":0,
			"byteLength":168432,
			"byteOffset":0,
			"target":34962
		},
		{
			"buffer":0,
			"byteLength":168432,
			"byteOffset":168432,
			"target":34962
		},
		{
			"buffer":0,
			"byteLength":112288,
			"byteOffset":336864,
			"target":34962
		},
		{
			"buffer":0,
			"byteLength":162048,
			"byteOffset":449152,
			"target":34963
		},
		{
			"buffer":0,
			"byteLength":71748,
			"byteOffset":611200,
			"target":34962
		},
		{
			"buffer":0,
			"byteLength":71748,
			"byteOffset":682948,
			"target":34962
		},
		{
			"buffer":0,
			"byteLength":47832,
			"byteOffset":754696,
			"target":34962
		},
		{
			"buffer":0,
			"byteLength":57600,
			"byteOffset":802528,
			"target":34963
		}
	],
	"samplers":[
		{
			"magFilter":9729,
			"minFilter":9987
		}
	],
	"buffers":[
		{
			"byteLength":860128,
			"uri":"Chair.bin"
		}
	]
}
