{
	"asset":{
		"generator":"Khronos glTF Blender I/O v4.1.63",
		"version":"2.0"
	},
	"extensionsUsed":[
		"KHR_texture_transform"
	],
	"extensionsRequired":[
		"KHR_texture_transform"
	],
	"scene":0,
	"scenes":[
		{
			"name":"Scene",
			"nodes":[
				0
			]
		}
	],
	"nodes":[
		{
			"mesh":0,
			"name":"Cube.003",
			"rotation":[
				0,
				0.7071067094802856,
				0,
				0.7071068286895752
			],
			"scale":[
				0.29401707649230957,
				0.2940170466899872,
				0.2940170466899872
			],
			"translation":[
				0,
				0.25479191541671753,
				0
			]
		}
	],
	"materials":[
		{
			"doubleSided":true,
			"name":"leather",
			"normalTexture":{
				"index":0
			},
			"pbrMetallicRoughness":{
				"baseColorTexture":{
					"index":1
				},
				"metallicFactor":0,
				"metallicRoughnessTexture":{
					"index":2
				}
			}
		},
		{
			"doubleSided":true,
			"name":"wood.001",
			"normalTexture":{
				"extensions":{
					"KHR_texture_transform":{
						"offset":[
							0,
							-6
						],
						"scale":[
							7,
							7
						]
					}
				},
				"index":3
			},
			"pbrMetallicRoughness":{
				"baseColorTexture":{
					"extensions":{
						"KHR_texture_transform":{
							"offset":[
								0,
								-6
							],
							"scale":[
								7,
								7
							]
						}
					},
					"index":4
				},
				"metallicFactor":0,
				"metallicRoughnessTexture":{
					"extensions":{
						"KHR_texture_transform":{
							"offset":[
								0,
								-6
							],
							"scale":[
								7,
								7
							]
						}
					},
					"index":5
				}
			}
		}
	],
	"meshes":[
		{
			"name":"Cube.006",
			"primitives":[
				{
					"attributes":{
						"POSITION":0,
						"NORMAL":1,
						"TEXCOORD_0":2
					},
					"indices":3,
					"material":0
				},
				{
					"attributes":{
						"POSITION":4,
						"NORMAL":5,
						"TEXCOORD_0":6
					},
					"indices":7,
					"material":1
				}
			]
		}
	],
	"textures":[
		{
			"sampler":0,
			"source":0
		},
		{
			"sampler":0,
			"source":1
		},
		{
			"sampler":0,
			"source":2
		},
		{
			"sampler":0,
			"source":3
		},
		{
			"sampler":0,
			"source":4
		},
		{
			"sampler":0,
			"source":5
		}
	],
	"images":[
		{
			"mimeType":"image/jpeg",
			"name":"FabricLeatherBuffaloRustic001_NRM_2K",
			"uri":"Textures/FabricLeatherBuffaloRustic001_NRM_2K.jpg"
		},
		{
			"mimeType":"image/jpeg",
			"name":"FabricLeatherBuffaloRustic001_COL_VAR3_2K",
			"uri":"Textures/FabricLeatherBuffaloRustic001_COL_VAR3_2K.jpg"
		},
		{
			"mimeType":"image/png",
			"name":"FabricLeatherBuffaloRustic001_GLOSS_2K",
			"uri":"Textures/FabricLeatherBuffaloRustic001_GLOSS_2K.png"
		},
		{
			"mimeType":"image/jpeg",
			"name":"Wood005_2K_NormalGL",
			"uri":"Textures/Wood005_2K_NormalGL.jpg"
		},
		{
			"mimeType":"image/jpeg",
			"name":"Wood005_2K_Color",
			"uri":"Textures/Wood005_2K_Color.jpg"
		},
		{
			"mimeType":"image/png",
			"name":"Wood005_2K_Roughness",
			"uri":"Textures/Wood005_2K_Roughness.png"
		}
	],
	"accessors":[
		{
			"bufferView":0,
			"componentType":5126,
			"count":24908,
			"max":[
				0.6874152421951294,
				0.832848072052002,
				0.9998313188552856
			],
			"min":[
				-0.6773144006729126,
				-0.43723592162132263,
				-0.8607072830200195
			],
			"type":"VEC3"
		},
		{
			"bufferView":1,
			"componentType":5126,
			"count":24908,
			"type":"VEC3"
		},
		{
			"bufferView":2,
			"componentType":5126,
			"count":24908,
			"type":"VEC2"
		},
		{
			"bufferView":3,
			"componentType":5123,
			"count":118296,
			"type":"SCALAR"
		},
		{
			"bufferView":4,
			"componentType":5126,
			"count":1279,
			"max":[
				0.7463701367378235,
				0.6879249811172485,
				0.9442362785339355
			],
			"min":[
				-0.7366871237754822,
				-0.866588830947876,
				-0.8347122669219971
			],
			"type":"VEC3"
		},
		{
			"bufferView":5,
			"componentType":5126,
			"count":1279,
			"type":"VEC3"
		},
		{
			"bufferView":6,
			"componentType":5126,
			"count":1279,
			"type":"VEC2"
		},
		{
			"bufferView":7,
			"componentType":5123,
			"count":4860,
			"type":"SCALAR"
		}
	],
	"bufferViews":[
		{
			"buffer":0,
			"byteLength":298896,
			"byteOffset":0,
			"target":34962
		},
		{
			"buffer":0,
			"byteLength":298896,
			"byteOffset":298896,
			"target":34962
		},
		{
			"buffer":0,
			"byteLength":199264,
			"byteOffset":597792,
			"target":34962
		},
		{
			"buffer":0,
			"byteLength":236592,
			"byteOffset":797056,
			"target":34963
		},
		{
			"buffer":0,
			"byteLength":15348,
			"byteOffset":1033648,
			"target":34962
		},
		{
			"buffer":0,
			"byteLength":15348,
			"byteOffset":1048996,
			"target":34962
		},
		{
			"buffer":0,
			"byteLength":10232,
			"byteOffset":1064344,
			"target":34962
		},
		{
			"buffer":0,
			"byteLength":9720,
			"byteOffset":1074576,
			"target":34963
		}
	],
	"samplers":[
		{
			"magFilter":9729,
			"minFilter":9987
		}
	],
	"buffers":[
		{
			"byteLength":1084296,
			"uri":"Chair2.bin"
		}
	]
}
