{
	"asset":{
		"generator":"Khronos glTF Blender I/O v4.1.63",
		"version":"2.0"
	},
	"extensionsUsed":[
		"KHR_materials_clearcoat",
		"KHR_materials_specular",
		"KHR_materials_ior",
		"KHR_materials_transmission",
		"KHR_materials_sheen"
	],
	"scene":0,
	"scenes":[
		{
			"name":"Scene",
			"nodes":[
				5
			]
		}
	],
	"nodes":[
		{
			"mesh":0,
			"name":"Cap",
			"rotation":[
				-0.0006473134271800518,
				0,
				0.0007105355034582317,
				1
			],
			"scale":[
				0.2376735359430313,
				0.2376735359430313,
				0.23767350614070892
			],
			"translation":[
				-0.002791323233395815,
				1.964236855506897,
				-0.0025429814122617245
			]
		},
		{
			"mesh":1,
			"name":"grip",
			"rotation":[
				-0.0006473134271800518,
				0,
				0.0007105355034582317,
				1
			],
			"scale":[
				0.7030548453330994,
				0.7073526382446289,
				0.7030547261238098
			],
			"translation":[
				8.782510121818632e-05,
				-0.061801958829164505,
				7.998623914318159e-05
			]
		},
		{
			"mesh":2,
			"name":"Label",
			"rotation":[
				-0.0006473133689723909,
				0,
				0.000710535328835249,
				1
			],
			"scale":[
				0.7237240076065063,
				0.7237243056297302,
				0.7237240672111511
			],
			"translation":[
				-0.001079212175682187,
				0.75943523645401,
				-0.0009831864153966308
			]
		},
		{
			"mesh":3,
			"name":"Liquid",
			"rotation":[
				0.7066487669944763,
				0.000502424081787467,
				0.0005024258862249553,
				0.7075642347335815
			],
			"scale":[
				0.7237241864204407,
				0.7237240672111511,
				0.7237241268157959
			],
			"translation":[
				-0.0014575582463294268,
				1.02567458152771,
				-0.0013278676196932793
			]
		},
		{
			"mesh":4,
			"name":"Plane",
			"rotation":[
				0.5586844086647034,
				0.43269428610801697,
				-0.4324595034122467,
				0.5600233674049377
			],
			"scale":[
				0.7237240672111511,
				0.7237241268157959,
				0.7237241268157959
			],
			"translation":[
				-0.0014575582463294268,
				1.02567458152771,
				-0.0013278676196932793
			]
		},
		{
			"children":[
				0,
				1,
				2,
				3,
				4
			],
			"name":"controller",
			"rotation":[
				0.0006329412572085857,
				0.020044181495904922,
				-0.0007233676733449101,
				0.999798595905304
			],
			"scale":[
				1.092389464378357,
				1.0923895835876465,
				1.092389464378357
			],
			"translation":[
				0,
				0.07437317818403244,
				0
			]
		}
	],
	"materials":[
		{
			"doubleSided":true,
			"extensions":{
				"KHR_materials_clearcoat":{
					"clearcoatFactor":0.09090909361839294,
					"clearcoatRoughnessFactor":0.11363636702299118
				},
				"KHR_materials_specular":{
					"specularColorFactor":[
						1.4581818580627441,
						1.4581818580627441,
						1.4581818580627441
					]
				},
				"KHR_materials_ior":{
					"ior":1.4500000476837158
				}
			},
			"name":"Cap",
			"pbrMetallicRoughness":{
				"baseColorFactor":[
					0.009134466759860516,
					0.009134466759860516,
					0.009134466759860516,
					1
				],
				"metallicFactor":0,
				"roughnessFactor":0.052727263420820236
			}
		},
		{
			"doubleSided":true,
			"extensions":{
				"KHR_materials_transmission":{
					"transmissionFactor":1
				},
				"KHR_materials_sheen":{
					"sheenColorFactor":[
						1.0,
						1.0,
						1.0
					],
					"sheenRoughnessFactor":0.5
				}
			},
			"name":"Wenbo glass shader",
			"pbrMetallicRoughness":{
				"metallicFactor":0,
				"metallicRoughnessTexture":{
					"index":0
				}
			}
		},
		{
			"alphaMode":"BLEND",
			"doubleSided":true,
			"name":"Swish_Oil_Label_(FINAL)-upscaled",
			"normalTexture":{
				"index":1,
				"texCoord":1
			},
			"pbrMetallicRoughness":{
				"baseColorTexture":{
					"index":2
				},
				"metallicFactor":0,
				"metallicRoughnessTexture":{
					"index":3,
					"texCoord":1
				}
			}
		},
		{
			"doubleSided":true,
			"extensions":{
				"KHR_materials_transmission":{
					"transmissionFactor":1
				},
				"KHR_materials_sheen":{
					"sheenColorFactor":[
						1.0,
						1.0,
						1.0
					],
					"sheenRoughnessFactor":0.5
				}
			},
			"name":"liquid",
			"pbrMetallicRoughness":{
				"baseColorFactor":[
					0.800000011920929,
					0.800000011920929,
					0.800000011920929,
					1
				],
				"metallicFactor":0,
				"roughnessFactor":0.003636382520198822
			}
		}
	],
	"meshes":[
		{
			"name":"Circle.001",
			"primitives":[
				{
					"attributes":{
						"POSITION":0,
						"NORMAL":1,
						"TEXCOORD_0":2
					},
					"indices":3,
					"material":0
				}
			]
		},
		{
			"name":"Circle.003",
			"primitives":[
				{
					"attributes":{
						"POSITION":4,
						"NORMAL":5,
						"TEXCOORD_0":6
					},
					"indices":7,
					"material":1
				}
			]
		},
		{
			"name":"Swish_Oil_Label_(FINAL)-upscaled",
			"primitives":[
				{
					"attributes":{
						"POSITION":8,
						"NORMAL":9,
						"TEXCOORD_0":10,
						"TEXCOORD_1":11
					},
					"indices":12,
					"material":2
				}
			]
		},
		{
			"name":"Plane.004",
			"primitives":[
				{
					"attributes":{
						"POSITION":13,
						"NORMAL":14,
						"TEXCOORD_0":15
					},
					"indices":16,
					"material":3
				}
			]
		},
		{
			"name":"Plane",
			"primitives":[
				{
					"attributes":{
						"POSITION":17,
						"NORMAL":18,
						"TEXCOORD_0":19
					},
					"indices":20,
					"material":1
				}
			]
		}
	],
	"textures":[
		{
			"sampler":0,
			"source":0
		},
		{
			"sampler":0,
			"source":1
		},
		{
			"sampler":1,
			"source":2
		},
		{
			"sampler":0,
			"source":3
		}
	],
	"images":[
		{
			"mimeType":"image/png",
			"name":"9793",
			"uri":"Textures/9793.png"
		},
		{
			"mimeType":"image/jpeg",
			"name":"Paper001_2K_NormalGL",
			"uri":"Textures/Paper001_2K_NormalGL.jpg"
		},
		{
			"mimeType":"image/png",
			"name":"Swish_Oil_Label_(FINAL)-upscaled",
			"uri":"Textures/Swish_Oil_Label_FINAL-upscaled.png"
		},
		{
			"mimeType":"image/png",
			"name":"Paper001_2K_Roughness",
			"uri":"Textures/Paper001_2K_Roughness.png"
		}
	],
	"accessors":[
		{
			"bufferView":0,
			"componentType":5126,
			"count":5122,
			"max":[
				1.0021560192108154,
				0.8066485524177551,
				1.0021560192108154
			],
			"min":[
				-1.0021560192108154,
				-0.01886492595076561,
				-1.0021560192108154
			],
			"type":"VEC3"
		},
		{
			"bufferView":1,
			"componentType":5126,
			"count":5122,
			"type":"VEC3"
		},
		{
			"bufferView":2,
			"componentType":5126,
			"count":5122,
			"type":"VEC2"
		},
		{
			"bufferView":3,
			"componentType":5123,
			"count":30720,
			"type":"SCALAR"
		},
		{
			"bufferView":4,
			"componentType":5126,
			"count":15552,
			"max":[
				0.49424663186073303,
				0.01335312519222498,
				0.49424663186073303
			],
			"min":[
				-0.49424663186073303,
				-0.000448851176770404,
				-0.49424663186073303
			],
			"type":"VEC3"
		},
		{
			"bufferView":5,
			"componentType":5126,
			"count":15552,
			"type":"VEC3"
		},
		{
			"bufferView":6,
			"componentType":5126,
			"count":15552,
			"type":"VEC2"
		},
		{
			"bufferView":7,
			"componentType":5123,
			"count":92160,
			"type":"SCALAR"
		},
		{
			"bufferView":8,
			"componentType":5126,
			"count":8006,
			"max":[
				0.6252438426017761,
				0.8068782091140747,
				0.6252843737602234
			],
			"min":[
				-0.6250675320625305,
				-0.7369749546051025,
				-0.6251077651977539
			],
			"type":"VEC3"
		},
		{
			"bufferView":9,
			"componentType":5126,
			"count":8006,
			"type":"VEC3"
		},
		{
			"bufferView":10,
			"componentType":5126,
			"count":8006,
			"type":"VEC2"
		},
		{
			"bufferView":11,
			"componentType":5126,
			"count":8006,
			"type":"VEC2"
		},
		{
			"bufferView":12,
			"componentType":5123,
			"count":42432,
			"type":"SCALAR"
		},
		{
			"bufferView":13,
			"componentType":5126,
			"count":5220,
			"max":[
				0.5790628790855408,
				0.579062819480896,
				1.4743386507034302
			],
			"min":[
				-0.5790628790855408,
				-0.579062819480896,
				-0.7457665205001831
			],
			"type":"VEC3"
		},
		{
			"bufferView":14,
			"componentType":5126,
			"count":5220,
			"type":"VEC3"
		},
		{
			"bufferView":15,
			"componentType":5126,
			"count":5220,
			"type":"VEC2"
		},
		{
			"bufferView":16,
			"componentType":5123,
			"count":29952,
			"type":"SCALAR"
		},
		{
			"bufferView":17,
			"componentType":5126,
			"count":18913,
			"max":[
				0.6240957975387573,
				0.6240957975387573,
				1.4992295503616333
			],
			"min":[
				-0.6240957975387573,
				-0.6240957975387573,
				-1.4996451139450073
			],
			"type":"VEC3"
		},
		{
			"bufferView":18,
			"componentType":5126,
			"count":18913,
			"type":"VEC3"
		},
		{
			"bufferView":19,
			"componentType":5126,
			"count":18913,
			"type":"VEC2"
		},
		{
			"bufferView":20,
			"componentType":5123,
			"count":112128,
			"type":"SCALAR"
		}
	],
	"bufferViews":[
		{
			"buffer":0,
			"byteLength":61464,
			"byteOffset":0,
			"target":34962
		},
		{
			"buffer":0,
			"byteLength":61464,
			"byteOffset":61464,
			"target":34962
		},
		{
			"buffer":0,
			"byteLength":40976,
			"byteOffset":122928,
			"target":34962
		},
		{
			"buffer":0,
			"byteLength":61440,
			"byteOffset":163904,
			"target":34963
		},
		{
			"buffer":0,
			"byteLength":186624,
			"byteOffset":225344,
			"target":34962
		},
		{
			"buffer":0,
			"byteLength":186624,
			"byteOffset":411968,
			"target":34962
		},
		{
			"buffer":0,
			"byteLength":124416,
			"byteOffset":598592,
			"target":34962
		},
		{
			"buffer":0,
			"byteLength":184320,
			"byteOffset":723008,
			"target":34963
		},
		{
			"buffer":0,
			"byteLength":96072,
			"byteOffset":907328,
			"target":34962
		},
		{
			"buffer":0,
			"byteLength":96072,
			"byteOffset":1003400,
			"target":34962
		},
		{
			"buffer":0,
			"byteLength":64048,
			"byteOffset":1099472,
			"target":34962
		},
		{
			"buffer":0,
			"byteLength":64048,
			"byteOffset":1163520,
			"target":34962
		},
		{
			"buffer":0,
			"byteLength":84864,
			"byteOffset":1227568,
			"target":34963
		},
		{
			"buffer":0,
			"byteLength":62640,
			"byteOffset":1312432,
			"target":34962
		},
		{
			"buffer":0,
			"byteLength":62640,
			"byteOffset":1375072,
			"target":34962
		},
		{
			"buffer":0,
			"byteLength":41760,
			"byteOffset":1437712,
			"target":34962
		},
		{
			"buffer":0,
			"byteLength":59904,
			"byteOffset":1479472,
			"target":34963
		},
		{
			"buffer":0,
			"byteLength":226956,
			"byteOffset":1539376,
			"target":34962
		},
		{
			"buffer":0,
			"byteLength":226956,
			"byteOffset":1766332,
			"target":34962
		},
		{
			"buffer":0,
			"byteLength":151304,
			"byteOffset":1993288,
			"target":34962
		},
		{
			"buffer":0,
			"byteLength":224256,
			"byteOffset":2144592,
			"target":34963
		}
	],
	"samplers":[
		{
			"magFilter":9729,
			"minFilter":9987
		},
		{
			"magFilter":9729,
			"minFilter":9987,
			"wrapS":33071,
			"wrapT":33071
		}
	],
	"buffers":[
		{
			"byteLength":2368848,
			"uri":"bottle.bin"
		}
	]
}
